<?xml version="1.0" encoding="UTF-8"?>
<svg width="228px" height="252px" viewBox="0 0 228 252" version="1.1" xmlns="http://www.w3.org/2000/svg" xmlns:xlink="http://www.w3.org/1999/xlink">
    <!-- Generator: Sketch 62 (91390) - https://sketch.com -->
    <title>undraw_contract_uy56</title>
    <desc>Created with Sketch.</desc>
    <g id="Page-1" stroke="none" stroke-width="1" fill="none" fill-rule="evenodd">
        <g id="Onboardinng-two" transform="translate(-67.000000, -222.000000)" fill-rule="nonzero">
            <g id="undraw_contract_uy56" transform="translate(206.000000, 346.500000) rotate(26.000000) translate(-206.000000, -346.500000) translate(100.000000, 236.000000)">
                <path d="M15.0222281,18 C6.72959066,18.009427 0.00943209884,24.7259722 0,33.0141508 L0,205.986037 C0.00951332985,214.274152 6.72965471,220.990596 15.0222281,221 L141.97796,221 C150.270469,220.990513 156.990508,214.274087 157,205.986037 L157,33.0141383 C156.990584,24.7260286 150.270528,18.0095082 141.97796,18 L15.0222281,18 Z" id="Path" fill="#3F3D56"></path>
                <rect id="Rectangle" fill="#FFFFFF" x="8" y="29" width="141" height="182"></rect>
                <rect id="Rectangle" fill="#6C63FF" x="26" y="62" width="105" height="7"></rect>
                <rect id="Rectangle" fill="#6C63FF" x="26" y="80" width="105" height="7"></rect>
                <rect id="Rectangle" fill="#6C63FF" x="26" y="98" width="105" height="7"></rect>
                <rect id="Rectangle" fill="#6C63FF" x="26" y="116" width="105" height="7"></rect>
                <rect id="Rectangle" fill="#6C63FF" x="26" y="134" width="105" height="7"></rect>
                <rect id="Rectangle" fill="#6C63FF" x="26" y="154" width="105" height="7"></rect>
                <rect id="Rectangle" fill="#6C63FF" x="26" y="172" width="105" height="7"></rect>
                <polygon id="Rectangle" fill="#E6E6E6" transform="translate(92.215018, 93.389901) rotate(-10.370530) translate(-92.215018, -93.389901) " points="39.8334296 25.8194634 144.673534 25.7596302 144.596605 160.960338 39.7565013 161.020171"></polygon>
                <polygon id="Rectangle" fill="#6C63FF" transform="translate(84.890568, 53.237160) rotate(-10.370530) translate(-84.890568, -53.237160) " points="46.1774807 50.7082979 123.606559 50.6641085 123.603656 55.766023 46.1745777 55.8102125"></polygon>
                <polygon id="Rectangle" fill="#6C63FF" transform="translate(87.332050, 66.621408) rotate(-10.370530) translate(-87.332050, -66.621408) " points="48.618962 64.0925455 126.04804 64.048356 126.045137 69.1502706 48.616059 69.19446"></polygon>
                <polygon id="Rectangle" fill="#6C63FF" transform="translate(89.773533, 80.005655) rotate(-10.370530) translate(-89.773533, -80.005655) " points="51.0604458 77.4767925 128.489524 77.4326031 128.486621 82.5345176 51.0575428 82.5787071"></polygon>
                <polygon id="Rectangle" fill="#6C63FF" transform="translate(92.215014, 93.389900) rotate(-10.370530) translate(-92.215014, -93.389900) " points="53.5019265 90.861037 130.931005 90.8168476 130.928102 95.9187621 53.4990235 95.9629516"></polygon>
                <polygon id="Rectangle" fill="#6C63FF" transform="translate(94.655409, 106.774101) rotate(-10.370392) translate(-94.655409, -106.774101) " points="55.9425032 104.24525 133.371217 104.201061 133.368314 109.302952 55.9396003 109.34714"></polygon>
                <polygon id="Rectangle" fill="#6C63FF" transform="translate(97.097985, 120.158390) rotate(-10.370530) translate(-97.097985, -120.158390) " points="58.3848978 117.629528 135.813976 117.585338 135.811073 122.687253 58.3819948 122.731442"></polygon>
                <polygon id="Rectangle" fill="#6C63FF" transform="translate(99.539467, 133.542638) rotate(-10.370530) translate(-99.539467, -133.542638) " points="60.826379 131.013776 138.255457 130.969586 138.252554 136.071501 60.8234761 136.11569"></polygon>
                <polygon id="Rectangle" fill="#E6E6E6" transform="translate(193.473706, 184.415159) rotate(-10.370530) translate(-193.473706, -184.415159) " points="178.652117 165.295822 208.317061 165.278892 208.295294 203.534496 178.63035 203.551426"></polygon>
                <polygon id="Rectangle" fill="#FFFFFF" transform="translate(191.401221, 173.053778) rotate(-10.370530) translate(-191.401221, -173.053778) " points="180.447191 172.338225 202.356072 172.325722 202.35525 173.76933 180.44637 173.781834"></polygon>
                <polygon id="Rectangle" fill="#FFFFFF" transform="translate(192.092048, 176.840904) rotate(-10.370530) translate(-192.092048, -176.840904) " points="181.138019 176.125352 203.046899 176.112848 203.046078 177.556457 181.137197 177.56896"></polygon>
                <polygon id="Rectangle" fill="#FFFFFF" transform="translate(192.782879, 180.628031) rotate(-10.370530) translate(-192.782879, -180.628031) " points="181.82885 179.912478 203.73773 179.899975 203.736909 181.343583 181.828028 181.356087"></polygon>
                <polygon id="Rectangle" fill="#FFFFFF" transform="translate(193.473707, 184.415157) rotate(-10.370530) translate(-193.473707, -184.415157) " points="182.519677 183.699605 204.428558 183.687101 204.427736 185.13071 182.518856 185.143213"></polygon>
                <polygon id="Rectangle" fill="#FFFFFF" transform="translate(194.164532, 188.202291) rotate(-10.370530) translate(-194.164532, -188.202291) " points="183.210502 187.486738 205.119383 187.474234 205.118562 188.917843 183.209681 188.930347"></polygon>
                <polygon id="Rectangle" fill="#FFFFFF" transform="translate(194.855363, 191.989417) rotate(-10.370530) translate(-194.855363, -191.989417) " points="183.901333 191.273865 205.810214 191.261361 205.809392 192.70497 183.900512 192.717473"></polygon>
                <polygon id="Rectangle" fill="#FFFFFF" transform="translate(195.546191, 195.776544) rotate(-10.370530) translate(-195.546191, -195.776544) " points="184.592161 195.060991 206.501042 195.048488 206.50022 196.492096 184.59134 196.5046"></polygon>
                <path d="M103.950727,9.57447006 L91.3620689,9.57447006 L91.3620689,7.01122085 C91.3620689,3.1390305 88.2060007,0 84.3127932,0 L70.6872036,0 C66.7939991,0 63.6379357,3.13903347 63.6379374,7.01122085 L63.6379374,9.57447006 L51.0492725,9.57447006 C49.1796887,9.57447006 47.3866781,10.3131502 46.064683,11.6280093 C44.7426879,12.9428684 44,14.7261998 44,16.5856909 L44,36 L111,36 L111,16.5856909 C111,14.7261998 110.257312,12.9428684 108.935317,11.6280093 C107.613322,10.3131502 105.820311,9.57447006 103.950727,9.57447006 Z" id="Path" fill="#3F3D56"></path>
                <path d="M74.8301723,197.572309 C76.8813949,196.171082 78.9895852,194.713789 81.4254503,194.076855 C83.6478787,193.495735 86.1998209,193.649463 87.9576442,195.273788 C89.3762342,196.584646 89.9751845,198.599417 88.9241335,200.324013 C88.4680409,201.119703 87.6928304,201.682725 86.7940254,201.871074 C85.9213756,201.985994 85.0506144,201.646427 84.4871197,200.971459 C83.9360202,200.363599 83.6062972,199.465178 83.8991408,198.663935 C84.207074,197.821402 85.0308226,197.306134 85.8398656,197.01858 C86.7815176,196.720831 87.751428,196.520836 88.7341976,196.421768 L92.7594652,195.871722 L109.234971,193.62038 L127.582695,191.113203 C127.884432,191.027994 128.061571,190.716581 127.980257,190.414279 C127.890169,190.116823 127.582121,189.942237 127.280057,190.017441 L90.7718293,195.006199 C89.451295,195.186645 88.1121368,195.315852 86.8053309,195.58097 C85.7766167,195.747084 84.8012068,196.151487 83.9573105,196.761754 C82.2084479,198.143842 82.3333796,200.588387 83.9427579,202.034267 C85.5719653,203.497943 87.9341215,203.245966 89.3638048,201.629367 C90.850847,199.946256 91.0043365,197.470593 89.7365485,195.617306 C88.1758765,193.268314 85.3320274,192.365869 82.6147523,192.699021 C79.4722023,193.084309 76.8079889,194.8475 74.2555846,196.591094 C73.654633,197.001613 74.223426,197.98678 74.8301723,197.572302 L74.8301723,197.572309 Z" id="Path" fill="#3F3D56"></path>
                <polygon id="Path" fill="#000000" opacity="0.2" points="208.299901 155 211 132.732185 209.199852 119 209.799901 133.936206 208 155"></polygon>
            </g>
        </g>
    </g>
</svg>