<?xml version="1.0" encoding="UTF-8"?>
<svg width="282px" height="234px" viewBox="0 0 282 234" version="1.1" xmlns="http://www.w3.org/2000/svg" xmlns:xlink="http://www.w3.org/1999/xlink">
    <!-- Generator: Sketch 62 (91390) - https://sketch.com -->
    <title>undraw_questions_75e0</title>
    <desc>Created with Sketch.</desc>
    <g id="Page-1" stroke="none" stroke-width="1" fill="none" fill-rule="evenodd">
        <g id="Onboardinng-one" transform="translate(-35.000000, -224.000000)" fill-rule="nonzero">
            <g id="undraw_questions_75e0" transform="translate(35.000000, 224.000000)">
                <ellipse id="Oval" fill="#6C63FF" opacity="0.1" cx="200.5" cy="231" rx="28.5" ry="3"></ellipse>
                <path d="M123.466942,2.06485499 C136.155626,-2.65482016 151.602842,1.40426913 164.794354,7.32424285 C206.225703,25.9218431 236.409434,61.2252381 260.390682,97.19203 C269.073596,110.21541 277.321101,123.812235 280.58527,138.350746 C287.231589,167.942181 269.896661,198.576499 240.415204,209.311722 C230.389543,212.966027 219.375079,214.464292 208.343761,215.29916 C188.727848,216.786181 168.418087,216.19587 148.959483,210.689114 C135.082551,206.753709 121.955648,200.423329 109.365282,193.429551 C74.2038342,173.887454 42.0930638,148.509713 18.971399,117.509964 C8.83056431,103.91314 0.251586729,88.5847368 0.0043863272,72.8965253 C-0.242814075,57.2083139 9.97386616,41.4442053 26.7834935,38.7765628 C33.7331957,37.6746494 41.0845985,38.8215389 48.2562193,40.0021604 C58.8156092,41.7421717 69.5182629,43.5721351 79.9568617,42.8131641 C90.7409792,42.0232721 104.766793,37.8067666 106.73316,27.5044381 C108.8147,16.4431387 110.795112,6.77890813 123.466942,2.06485499 Z" id="Path" fill="#6C63FF" opacity="0.1"></path>
                <path d="M68.2705766,215.017397 C68.2705766,215.017397 82.5450759,214.210342 80.8620692,223.589929 C80.8620692,223.589929 81.1963043,225.25396 79.5931591,226 C79.5931591,226 79.5694964,225.30388 78.129032,225.539618 C77.617377,225.62207 77.0969746,225.646281 76.5791278,225.611726 C75.8787983,225.566254 75.2132839,225.308277 74.6831573,224.876779 L74.6831573,224.876779 C74.6831573,224.876779 70.6693787,223.323684 69.110601,217.172317 C69.110601,217.172317 67.9540885,215.832772 68.0014138,215.486099 L70.4090894,216.451237 C70.4090894,216.451237 69.586812,218.081987 70.2345773,219.435399 C70.2345773,219.435399 70.3114809,216.512252 70.7758606,216.578813 C70.8675534,216.59268 72.0270237,217.13349 72.0270237,217.13349 C72.0270237,217.13349 70.610222,219.970662 71.6779995,222.03406 C71.6779995,222.03406 71.2727765,218.536822 72.4677408,217.33872 L74.1655366,218.267804 C74.1655366,218.267804 72.5091504,221.199271 73.6331267,223.589929 C73.6331267,223.589929 73.3373435,219.920741 74.5204765,218.492448 L76.0585493,219.601802 C76.0585493,219.601802 74.5027295,222.491669 75.4521937,224.477412 C75.4521937,224.477412 75.5734648,220.203626 76.3898266,219.881914 C76.3898266,219.881914 77.7356403,220.991268 77.9397308,221.451649 C77.9397308,221.451649 76.8749111,223.548328 77.5345077,224.654909 C77.5345077,224.654909 77.9397308,221.809416 78.2739658,221.795549 C78.2739658,221.795549 79.6109061,223.681451 79.752882,224.973848 C79.752882,224.973848 79.6937254,223.051892 78.5963696,221.615279 C78.5963696,221.615279 79.8919002,221.823283 80.6491053,222.610924 C80.6491053,222.610924 80.4390992,221.276926 78.2680502,221.160444 C78.2680502,221.160444 77.1618208,219.732151 76.8630798,219.643403 C76.8630798,219.643403 79.0252553,219.474226 80.335575,220.020583 C80.335575,220.020583 79.1820204,218.761466 76.4667302,219.332784 L74.9493622,218.173509 C74.9493622,218.173509 77.7977548,217.807422 79.0015926,218.212336 C79.0015926,218.212336 77.6143692,217.102982 74.5411813,217.910037 L72.8907108,216.983727 C72.8907108,216.983727 75.3161334,216.492838 76.7625135,216.670334 C76.7625135,216.670334 75.2362719,215.899334 72.4056263,216.734122 L71.2224933,216.237686 C71.2224933,216.237686 72.9971928,215.910427 73.5207291,215.857733 C74.0442655,215.805039 74.0679281,215.671916 74.0679281,215.671916 C72.9420444,215.495021 71.7858803,215.615046 70.7285353,216.018589 C70.7285353,216.018589 68.2262091,215.178254 68.2705766,215.017397 Z" id="Path" fill="#6C63FF"></path>
                <ellipse id="Oval" fill="#6C63FF" opacity="0.1" cx="77.5" cy="226.5" rx="9.5" ry="1.5"></ellipse>
                <path d="M50.1502262,208.011055 C50.1502262,208.011055 57.8319094,207.49776 56.925691,213.466376 C57.0238895,214.087226 56.7488277,214.707244 56.2453214,215 C56.2453214,215 56.2312059,214.558692 55.4576736,214.708924 C55.1827138,214.761082 54.9030355,214.775797 54.6248561,214.752742 C54.2470463,214.726916 53.8876297,214.562906 53.6028901,214.286395 L53.6028901,214.286395 C53.6028901,214.286395 51.4460338,213.294234 50.5991007,209.381927 C50.5991007,209.381927 49.9780165,208.52748 50.0006014,208.30839 L51.2992321,208.934359 C51.2992321,208.934359 50.8560038,209.973468 51.2032464,210.834176 C51.2032464,210.834176 51.245593,208.971918 51.4855574,209.015735 C51.5363734,209.015735 52.1602808,209.375668 52.1602808,209.375668 C52.1602808,209.375668 51.398041,211.181588 51.9739555,212.505513 C51.9739555,212.505513 51.7537529,210.280193 52.397422,209.516511 L53.3092867,210.108051 C53.3092867,210.108051 52.4200069,211.985959 53.0269756,213.494544 C53.0269756,213.494544 52.8717046,211.15968 53.5040813,210.252024 L54.3312526,210.965629 C54.3312526,210.965629 53.4843195,212.802848 54.0065949,214.067306 C54.0065949,214.067306 54.0715265,211.34747 54.5119317,211.14403 C54.5119317,211.14403 55.2346479,211.851375 55.3447492,212.142451 C55.3447492,212.142451 54.7801272,213.475765 55.1273697,214.17998 C55.1273697,214.17998 55.3447492,212.37093 55.5254283,212.36154 C55.5254283,212.36154 56.2453214,213.560271 56.3187223,214.38342 C56.282719,213.62314 56.0686599,212.886379 55.697638,212.245736 C56.112968,212.329946 56.4968174,212.547621 56.8014742,212.871705 C56.8014742,212.871705 56.6913729,212.023517 55.5197821,211.948401 C55.5197821,211.948401 54.9241058,211.037616 54.7660116,210.984408 C54.7660116,210.984408 55.9291331,210.874864 56.6349106,211.222276 C56.6349106,211.222276 56.0138264,210.421036 54.5514552,210.784098 L53.7355763,210.045455 C53.7355763,210.045455 55.2685252,209.813846 55.9178406,210.070493 C55.9178406,210.070493 55.1697164,209.363148 53.5153737,209.879573 L52.6289171,209.288032 C53.311824,209.122627 54.0112284,209.056345 54.7095494,209.090852 C54.7095494,209.090852 53.8908474,208.599466 52.3663678,209.13154 L51.731168,208.818555 C51.731168,208.818555 52.6882024,208.608856 52.9676903,208.577557 C53.2471782,208.546259 53.2641169,208.458623 53.2641169,208.458623 C52.6576682,208.347167 52.0352252,208.424083 51.4657956,208.680842 C51.4657956,208.680842 50.1276413,208.11434 50.1502262,208.011055 Z" id="Path" fill="#6C63FF"></path>
                <ellipse id="Oval" fill="#6C63FF" opacity="0.1" cx="55.5" cy="215.5" rx="5.5" ry="1"></ellipse>
                <path d="M238.181498,214.013024 C238.181498,214.013024 248.063805,213.419637 246.905605,220.243577 C247.027044,220.954552 246.67308,221.662305 246.027177,222 C246.027177,222 246.009128,221.492655 245.013376,221.664737 C244.658764,221.724246 244.298149,221.741182 243.939408,221.715175 C243.454582,221.684113 242.993627,221.496428 242.627784,221.181127 L242.627784,221.181127 C242.627784,221.181127 239.848103,220.050727 238.768119,215.570662 C238.768119,215.570662 237.967907,214.594542 238.000999,214.34532 L239.667604,215.045515 C239.667604,215.045515 239.099033,216.232287 239.547272,217.220275 C239.547272,217.220275 239.601421,215.090019 239.920302,215.143424 C239.986485,215.143424 240.786696,215.55286 240.786696,215.55286 C240.786696,215.55286 239.805986,217.629712 240.546031,219.113177 C240.546031,219.113177 240.266258,216.567551 241.093544,215.695273 L242.266786,216.368766 C242.266786,216.368766 241.120619,218.504956 241.899772,220.246544 C241.899772,220.246544 241.698215,217.576307 242.501435,216.534914 L243.566377,217.353787 C243.566377,217.353787 242.489402,219.457341 243.145214,220.914104 C243.145214,220.914104 243.232455,217.804761 243.798018,217.567406 C243.798018,217.567406 244.727586,218.377378 244.868977,218.709674 C244.868977,218.709674 244.13194,220.237643 244.589204,221.044648 C244.589204,221.044648 244.868977,218.967797 245.100617,218.967797 C245.100617,218.967797 246.027177,220.341486 246.123443,221.282003 C246.078643,220.412427 245.803797,219.569568 245.326241,218.837252 C245.860917,218.937078 246.354413,219.188681 246.746164,219.561183 C246.746164,219.561183 246.601765,218.590997 245.0946,218.504956 C245.0946,218.504956 244.330489,217.463564 244.125924,217.401258 C244.125924,217.401258 245.63008,217.276647 246.532574,217.674216 C246.532574,217.674216 245.732363,216.760401 243.852167,217.175771 L242.802266,216.330196 C242.802266,216.330196 244.772711,216.063172 245.609022,216.356899 C245.609022,216.356899 244.646362,215.546927 242.519485,216.137346 L241.376326,215.463852 C241.376326,215.463852 243.054964,215.107821 244.056732,215.235399 C244.056732,215.235399 243.000815,214.674649 241.04842,215.28287 L240.230159,214.920904 C240.230159,214.920904 241.460559,214.680583 241.821556,214.64498 C242.182554,214.609377 242.200603,214.508501 242.200603,214.508501 C241.421644,214.380326 240.621906,214.467621 239.890219,214.76069 C239.890219,214.76069 238.151414,214.125767 238.181498,214.013024 Z" id="Path" fill="#6C63FF"></path>
                <ellipse id="Oval" fill="#6C63FF" opacity="0.1" cx="245.5" cy="222" rx="6.5" ry="1"></ellipse>
                <path d="M170,119.316314 C171.250309,116.949495 173.613809,115.671857 176,116.072894 L176,121 L173.393,121 L171.353,120.407783 L170,119.316314 Z" id="Path" fill="#4C4981"></path>
                <path d="M176,116.893503 L173.053376,119 C173.053376,119 173.028475,118.579265 172.953772,118.003226 C172.807133,116.913269 172.477885,115.278333 171.766822,114.962076 C170.68501,114.476396 158.641204,109.851138 162.913117,108.295266 C167.18503,106.739395 173.739538,111.839039 173.739538,111.839039 C173.739538,111.839039 174.077086,111.957635 174.616609,113.095595 C174.893287,113.694225 175.272336,114.713589 175.557315,115.546587 C175.820159,116.297697 176,116.893503 176,116.893503 Z" id="Path" fill="#AE6E79"></path>
                <polygon id="Path" fill="#4C4981" points="200.773936 121.116208 201.095745 121 202 121.79103 201.260638 123 200 122.61264 200.292553 121.646279"></polygon>
                <path d="M209.644061,117.492896 C209.317021,118.263106 209.80308,116.863792 209.644061,117.492896 C208.3359,118.404214 205.254522,121 203.52331,121 C202.353166,121 202.002123,120.791279 201,120.347379 C201.30327,119.41711 201.519193,118.461647 201.645079,117.492896 C201.645079,117.492896 212.029353,111.88388 209.644061,117.492896 Z" id="Path" fill="#000000" opacity="0.1"></path>
                <path d="M177,117.170074 L174.098093,119 C174.098093,119 174.073569,118.634505 174,118.134096 C175.433243,117.589534 176.305177,116.385119 176.555858,116 C176.822888,116.652494 177,117.170074 177,117.170074 Z" id="Path" fill="#000000" opacity="0.1"></path>
                <path d="M181,129 C181,129 182.74309,131.709524 181.626601,132 L181,129 Z" id="Path" fill="#000000" opacity="0.1"></path>
                <path d="M211,177.155248 C211,177.155248 210.719101,178.045529 210.33427,179.214422 C208.438202,179.083122 205.926966,178.945417 203.542135,178.926202 C202.699438,178.926202 201.873596,178.926202 201.092697,178.958226 C199.435393,179.015871 198.002809,179.169588 197.089888,179.464213 C195.935614,179.869374 194.729158,180.046991 193.522472,179.989415 C193.213483,178.634779 193,177.661235 193,177.661235 C193,177.661235 198.191011,177.164855 201.339888,176.991923 L201.587079,175 L211,177.155248 Z" id="Path" fill="#000000" opacity="0.1"></path>
                <path d="M184.602216,127.936672 C185.007545,128.440313 185.485327,128.803773 186,129 C185.850977,128.952705 185.712466,128.851422 185.59718,128.705449 C185.313192,128.410898 185.043303,128.089838 184.769386,127.777614 C184.547835,127.5243 184.271903,127.103093 184,127 C184.178012,127.341886 184.379835,127.655795 184.602216,127.936672 Z" id="Path" fill="#000000" opacity="0.1"></path>
                <path d="M184.467971,129.643342 C184.639414,129.884076 184.778276,130.157832 184.879136,130.453918 C185.049825,131.291045 185.03956,132.169392 184.84938,133 L183.994591,130.437101 C183.845815,129.999861 183.697038,129.562621 183.518506,129.145561 C183.44006,128.967301 182.947745,128.223993 183.004551,128.069278 C183.156032,127.632038 184.308374,129.397815 184.467971,129.643342 Z" id="Path" fill="#000000" opacity="0.1"></path>
                <path d="M210.126018,141.864184 C210.828157,141.780379 211.484753,141.47759 212,141 C210.940793,141.131716 209.936991,141.542926 208.894079,141.758169 C207.925782,141.979905 206.910731,141.887511 206,141.494737 C207.199348,142.073001 208.848452,142.092277 210.126018,141.864184 Z" id="Path" fill="#000000" opacity="0.1"></path>
                <path d="M208.465834,143.993589 C208.748268,144.017457 209.031186,143.974622 209.307862,143.866104 C209.58776,143.757467 209.835128,143.454696 210,143.018949 C209.899969,142.975893 209.794887,143.006848 209.706833,143.105309 C208.85272,143.775879 207.914817,143.985344 207,143.709833 C207.438648,144.059387 208.000735,143.989476 208.465834,143.993589 Z" id="Path" fill="#000000" opacity="0.1"></path>
                <path d="M202,159.401487 C201.263773,159.692242 200.507296,159.886365 199.741737,159.980991 C199.145969,160.017012 198.549039,160.001829 197.954788,159.935539 L195.063286,159.69692 L193.617534,159.575717 C193.446936,159.575717 192.750084,159.575717 193.094172,159.124991 C193.267663,158.90531 194.233424,159.045451 194.482094,159.034088 C194.962083,159.013888 195.444,159.002525 195.927845,159 C196.884932,159 197.844911,159 198.801998,159.075752 C199.874746,159.143929 200.930144,159.249982 202,159.401487 Z" id="Path" fill="#000000" opacity="0.1"></path>
                <path d="M199,160.395796 C198.480576,160.366005 197.811436,160.795849 197.276735,160.889478 C196.678611,160.987998 196.075844,161.020728 195.474029,160.987363 C194.283166,160.947548 193.106863,160.613228 192,160 C194.331296,160.165979 196.668704,160.263864 199,160.395796 Z" id="Path" fill="#000000" opacity="0.1"></path>
                <path d="M193.119502,163.093019 C193.357303,163.136464 193.591493,163.19474 193.820391,163.267431 C195.177156,163.616254 196.620729,163.308127 198,163 C197.655986,163.468004 197.035475,163.668577 196.414964,163.796479 C195.40572,164.027662 194.353667,164.06234 193.328483,163.898219 C193.006974,163.840082 192.199988,163.735435 192.042449,163.433122 C191.778812,162.988373 192.817284,163.049417 193.119502,163.093019 Z" id="Path" fill="#000000" opacity="0.1"></path>
                <path d="M199.648558,164.452266 C199.980202,164.505504 200.30752,164.57415 200.628782,164.65784 C201.873719,164.900416 203.165833,164.567387 204.416011,164.343313 C205.918884,164.075639 207.460014,163.963675 209,164.010284 C208.724803,164.010284 208.28711,164.199411 208.017155,164.263139 C207.663331,164.347424 207.304265,164.425542 206.945199,164.495437 C206.240172,164.631115 205.52466,164.742125 204.803908,164.822298 C203.348877,164.987303 201.876433,165.037576 200.408625,164.972367 C199.73767,164.943587 198.573981,164.997036 198,164.731846 C198.496169,164.500583 199.074903,164.402435 199.648558,164.452266 L199.648558,164.452266 Z" id="Path" fill="#000000" opacity="0.1"></path>
                <path d="M200.506116,121.611675 C200.506116,121.611675 200.571001,124.801036 200.076246,126.256926 C199.919438,126.710121 199.676116,127.545699 199.411165,128.483247 C199.121882,129.522763 198.805563,130.686908 198.562241,131.598964 C198.318919,132.511019 198.156704,133.122832 198.156704,133.122832 C198.156704,133.122832 197.040125,142.651261 196.750842,147.19171 C196.750842,147.271019 196.750842,147.353161 196.73462,147.429637 C196.718399,147.68456 196.691363,147.950812 196.650809,148.225561 C196.007357,152.734853 192.29534,159.688566 191.048989,160.243731 C190.660331,160.430587 190.30544,160.686446 190,161 C190,159.082418 190.091922,157.629361 190.321726,157.334784 C191.048989,156.400069 194.155404,147.047254 194.155404,147.047254 L194.863742,147.086908 C194.847521,146.956615 194.836706,146.803661 194.831299,146.670535 C194.774524,144.866252 195.577487,142.096097 195.577487,142.096097 C195.577487,142.096097 196.0398,136.552953 196.0398,136.312193 C196.0398,136.071434 195.642373,132.188117 195.642373,132.188117 L196.437226,129.072401 L197.959342,127.956408 C198.148593,125.551641 198.600091,122.631364 199.67882,121.83544 C200.219002,121.392465 200.650078,120.820405 200.935985,120.167116 C201.149568,120.198273 200.760252,120 200.760252,120 L200.506116,121.611675 Z" id="Path" fill="#000000" opacity="0.1"></path>
                <path d="M215,160 C213.775797,159.677627 211.95908,158.932946 212.000703,157.288846 C212.037429,155.751128 213.442814,155.196647 214.50787,155 C214.679259,156.605416 214.848199,158.381689 215,160 Z" id="Path" fill="#000000" opacity="0.1"></path>
                <path d="M219.99043,159.627831 C219.92718,159.769453 219.67418,159.891313 219.313654,160 C217.912665,158.046936 215.958238,155.540558 215,155.319891 L215.29095,155.039941 C215.592648,155.010603 215.895593,154.997412 216.198589,155.000419 C216.198589,155.000419 220.221293,159.107453 219.99043,159.627831 Z" id="Path" fill="#000000" opacity="0.1"></path>
                <path d="M223.949335,142.039692 C224.524213,141.390231 225.247809,141.023366 226,141 C225.51798,141.111197 225.011027,141.252973 224.657822,141.703321 C224.519085,141.898305 224.394554,142.11054 224.285919,142.337144 C224.165413,142.567878 223.184751,144.235834 223.039314,143.971741 C222.796226,143.585331 223.751956,142.264866 223.949335,142.039692 Z" id="Path" fill="#000000" opacity="0.1"></path>
                <path d="M221,141 C221.240502,140.959449 221.45105,140.668227 221.550595,140.238438 C221.64465,139.81356 221.702728,139.361619 221.722557,138.900308 C221.779004,138.128254 221.858548,137.363325 221.96078,136.609455 C222.022934,136.307526 222.010721,135.966543 221.92765,135.684481 C221.885317,135.443622 221.828099,135.213761 221.757265,135 C221.615278,135.308325 221.574259,136.026721 221.515887,136.439877 C221.443316,136.951696 221.377055,137.466598 221.313949,137.981501 C221.280819,138.22816 221.018932,141 221,141 Z" id="Path" fill="#000000" opacity="0.1"></path>
                <path d="M216.229192,128.044772 C215.865722,127.728475 215.835433,127.171457 215.560077,126.776786 C215.22046,126.364255 214.712087,126.134805 214.183296,126.155389 C213.665626,126.138594 213.153464,126.256156 212.638548,126.281348 C211.440219,126.33482 210.269565,125.90529 209.381084,125.086138 C208.874429,124.615891 208.461394,123.966503 208.499944,123.269531 C208.524726,122.84127 208.714722,122.4438 208.7753,122.023937 C208.981818,120.814732 208.191545,119.669906 207.335188,118.804988 C206.47883,117.94007 205.476533,117.142331 205.055238,115.991906 C204.534815,114.56997 205.055238,112.980089 204.901039,111.465784 C204.644958,108.742273 202.362255,106.659753 200.076799,105.523323 C199.542608,105.25741 198.675236,104.58283 199.267252,103.897054 C199.415944,103.720712 199.64449,103.631141 199.798689,103.460397 C200.275055,102.936968 199.798689,102.074849 199.974917,101.383475 C200.008801,101.245804 200.06763,101.115758 200.148391,101 C199.572897,101.109164 199.046967,101.439457 198.906535,101.999274 C198.738568,102.693447 199.209427,103.552767 198.733061,104.078995 C198.578861,104.249739 198.350315,104.33931 198.19887,104.512853 C197.606854,105.198629 198.474226,105.876008 199.008417,106.139122 C201.296627,107.275552 203.579329,109.360871 203.832657,112.081583 C203.973089,113.595888 203.466433,115.185769 203.98961,116.610504 C204.408151,117.75813 205.413201,118.569865 206.269559,119.423586 C207.125917,120.277307 207.921696,121.430531 207.709672,122.639736 C207.593627,123.049005 207.501678,123.46494 207.434316,123.88533 C207.395766,124.582302 207.811554,125.23169 208.318209,125.701937 C209.205373,126.521454 210.375345,126.951097 211.572919,126.897147 C212.090589,126.871955 212.599998,126.757192 213.117667,126.771188 C213.646378,126.751032 214.154574,126.980401 214.494448,127.392585 C214.769804,127.787256 214.800094,128.347073 215.163564,128.660571 C215.401025,128.830503 215.678354,128.933807 215.967604,128.960073 C216.311799,129.024452 216.746862,129.046845 216.920336,128.741744 C216.982137,128.617196 217.008822,128.47769 216.997436,128.338676 C216.720391,128.311064 216.455404,128.209689 216.229192,128.044772 Z" id="Path" fill="#000000" opacity="0.1"></path>
                <path d="M178.169079,158 L158.845,158 L158.845,138.704183 L178.183048,138.704183 L178.169079,158 Z M177.889708,128.906234 L159.12437,128.906234 C159.12437,98.9207165 187.251424,100.67308 187.251424,81.7028238 C187.251424,71.2537541 178.811632,62.8826083 168.500055,62.8826083 C158.188478,62.8826083 149.75148,71.9077056 149.75148,82.0000745 L131.000055,82.0000745 C130.983016,71.9165573 134.928402,62.2410502 141.964715,55.1109163 C149.001028,47.9807824 158.549221,43.9827893 168.500055,44.0000557 C189.212608,44.0000557 206,60.7452343 206,81.7028238 C206,105.423429 177.87574,108.124164 177.87574,128.906234 L177.889708,128.906234 Z" id="Shape" fill="#6C63FF"></path>
                <path d="M78.9364254,107 L74.0388672,107 L74.0388672,101.888936 L78.9364254,101.888936 L78.9364254,107 Z M78.8623031,99.3130992 L74.1129895,99.3130992 C74.1129895,91.3941409 81.23696,91.855355 81.23696,86.8400148 C81.2318749,85.5147409 80.7285543,84.2459258 79.8378033,83.3128972 C78.9470523,82.3798685 77.7418956,81.8591168 76.4876463,81.8652846 C73.8811768,81.9288941 71.7884564,84.1580493 71.7493137,86.9125327 L67,86.9125327 C67.0655694,81.4331273 71.2774076,77.021533 76.463547,77.0000774 C81.6496865,76.9787778 85.8939722,81.3555153 86,86.8342133 C85.9862737,93.0997627 78.8623031,93.8133392 78.8623031,99.3014963 L78.8623031,99.3130992 Z" id="Shape" fill="#6C63FF" opacity="0.1"></path>
                <path d="M116.958374,141 L112.060821,141 L112.060821,135.901468 L116.958374,135.901468 L116.958374,141 Z M116.886997,133.313027 L112.137689,133.313027 C112.137689,125.388103 119.261651,125.852397 119.261651,120.835116 C119.256568,119.509594 118.75316,118.240584 117.86233,117.307655 C116.9715,116.374726 115.766337,115.854421 114.512343,115.861363 C111.894119,115.911221 109.785933,118.148637 109.749308,120.916368 L105,120.916368 C105.065569,115.434843 109.277403,111.021541 114.463536,111.000077 C119.64967,110.97877 123.893951,115.3572 123.999986,120.838018 C124.008214,127.105992 116.886997,127.822746 116.886997,133.313027 Z" id="Shape" fill="#6C63FF" opacity="0.1"></path>
                <path d="M139.803072,80 L136.194249,80 L136.194249,76.2885684 L139.803072,76.2885684 L139.803072,80 Z M139.750042,74.3905113 L136.250069,74.3905113 C136.250069,68.6145775 141.500028,68.9503876 141.500028,65.2944377 C141.495597,64.3279138 141.124359,63.402819 140.467985,62.7226692 C139.81161,62.0425194 138.923868,61.6630307 138.000055,61.6676886 C136.074766,61.708419 134.52677,63.3383179 134.500083,65.3528394 L131.000055,65.3528394 C130.99014,62.7363762 132.315108,60.3130988 134.475912,58.9958324 C136.636717,57.678566 139.305081,57.6674347 141.475857,58.9666316 C143.646633,60.2658284 144.990029,62.6779745 145,65.2944377 C144.994418,69.8643751 139.750042,70.3870709 139.750042,74.3905113 L139.750042,74.3905113 Z" id="Shape" fill="#6C63FF" opacity="0.1"></path>
                <path d="M202.042641,85 L199.979871,85 L199.979871,83.1228945 L202.042641,83.1228945 L202.042641,85 Z M202.011601,82.1713064 L199.999624,82.1713064 C199.999624,79.2565787 202.999247,79.4260396 202.999247,77.5802193 C202.999281,77.0925734 202.788075,76.6251978 202.412739,76.2823448 C202.037402,75.9394918 201.52916,75.7496825 201.001379,75.7552556 C199.901577,75.7761979 199.017169,76.5979074 199.00069,77.6141114 L197,77.6141114 C197.048563,75.6107238 198.815909,74.0078318 200.984851,74.0000282 C203.153793,73.9922814 204.934548,75.5824543 204.999968,77.5854334 C205.011224,79.8770664 202.011601,80.1508109 202.011601,82.1713064 L202.011601,82.1713064 Z" id="Shape" fill="#6C63FF" opacity="0.1"></path>
                <path d="M234.031353,177 L231.968583,177 L231.968583,175.122895 L234.031353,175.122895 L234.031353,177 Z M234.000313,174.171306 L231.999624,174.171306 C231.999624,171.253972 235.002069,171.42604 235.002069,169.580219 C234.994302,168.566134 234.099008,167.749476 233.001379,167.755256 C231.900953,167.774851 231.015708,168.597339 231.00069,169.614111 L229,169.614111 C229.048563,167.610724 230.815909,166.007832 232.984851,166.000028 C235.153793,165.992281 236.934548,167.582454 236.999968,169.585433 C237.011224,171.887495 234.011601,172.150811 234.011601,174.171306 L234.000313,174.171306 Z" id="Shape" fill="#6C63FF" opacity="0.1"></path>
            </g>
        </g>
    </g>
</svg>