<?xml version="1.0" encoding="UTF-8"?>
<svg width="229px" height="198px" viewBox="0 0 229 198" version="1.1" xmlns="http://www.w3.org/2000/svg" xmlns:xlink="http://www.w3.org/1999/xlink">
    <!-- Generator: Sketch 62 (91390) - https://sketch.com -->
    <title>undraw_site_stats_l57q</title>
    <desc>Created with Sketch.</desc>
    <g id="Page-1" stroke="none" stroke-width="1" fill="none" fill-rule="evenodd">
        <g id="Onboardinng-three" transform="translate(-64.000000, -203.000000)">
            <g id="undraw_site_stats_l57q" transform="translate(64.000000, 203.000000)">
                <g id="bcb547b9-8dd8-4d76-924a-52de61933c6c">
                    <path d="M59.104375,74.9653846 C59.104375,74.9653846 48.5627083,56.1530769 32.676875,50.7346154 C26.0104167,48.4592308 20.191875,44.1807692 16.2135417,38.3330769 C14.3296802,35.5561592 12.7033888,32.6106814 11.3552083,29.5338462" id="Path" stroke="#535461" stroke-width="2"></path>
                    <path d="M1.36583333,26.0561538 C3.17625,27.8238462 11.605,29.6538462 11.605,29.6538462 C11.605,29.6538462 9.5425,21.2238462 7.7275,19.4561538 C5.91189822,17.7248605 3.05132807,17.7855748 1.30978116,19.592367 C-0.431765739,21.3991591 -0.406781602,24.2802632 1.36583333,26.0561538 L1.36583333,26.0561538 Z" id="Path" fill="#6C63FF" fill-rule="nonzero"></path>
                    <path d="M6.13479167,41.3076923 C8.6075,41.8015385 16.6764583,38.7253846 16.6764583,38.7253846 C16.6764583,38.7253846 10.3927083,32.7807692 7.91770833,32.2869231 C5.47102981,31.8530816 3.12870074,33.468101 2.64556216,35.9220308 C2.16242358,38.3759607 3.71568613,40.7687227 6.14166667,41.3076923 L6.13479167,41.3076923 Z" id="Path" fill="#6C63FF" fill-rule="nonzero"></path>
                    <path d="M23.4941667,57.8123077 C25.8775,56.9815385 31.2858333,50.2269231 31.2858333,50.2269231 C31.2858333,50.2269231 22.88,48.2907692 20.4989583,49.1215385 C18.9082497,49.6191646 17.7127111,50.9493705 17.379168,52.5927471 C17.0456248,54.2361238 17.6269767,55.9320327 18.8962216,57.0182677 C20.1654665,58.1045027 21.9213031,58.4087877 23.478125,57.8123077 L23.4941667,57.8123077 Z" id="Path" fill="#6C63FF" fill-rule="nonzero"></path>
                    <path d="M39.4235417,67.3292308 C41.9122917,66.9161538 48.3839583,61.1815385 48.3839583,61.1815385 C48.3839583,61.1815385 40.4341667,57.8330769 37.93625,58.2461538 C35.4454458,58.6597302 33.7591916,61.028316 34.1698958,63.5365385 C34.5806001,66.0447609 36.9327374,67.7428071 39.4235417,67.3292308 L39.4235417,67.3292308 Z" id="Path" fill="#6C63FF" fill-rule="nonzero"></path>
                    <path d="M23.705,32.1392308 C23.705,34.6776923 19.1445833,42.0438462 19.1445833,42.0438462 C19.1445833,42.0438462 14.575,34.6823077 14.5727083,32.1438462 C14.5356135,30.4765549 15.3977119,28.9196768 16.8257382,28.0750612 C18.2537645,27.2304456 20.0239438,27.2304456 21.4519702,28.0750612 C22.8799965,28.9196768 23.7420948,30.4765549 23.705,32.1438462 L23.705,32.1392308 Z" id="Path" fill="#6C63FF" fill-rule="nonzero"></path>
                    <path d="M42.1872917,43.4976923 C41.4333333,45.9207692 34.890625,51.5746154 34.890625,51.5746154 C34.890625,51.5746154 32.718125,43.1723077 33.4697917,40.7492308 C34.3014584,38.4332739 36.7971618,37.1879948 39.1308506,37.9245369 C41.4645394,38.661079 42.8079441,41.1180297 42.178125,43.4976923 L42.1872917,43.4976923 Z" id="Path" fill="#6C63FF" fill-rule="nonzero"></path>
                    <path d="M58.650625,57.0207692 C58.3091667,59.5361538 52.8091667,66.2238462 52.8091667,66.2238462 C52.8091667,66.2238462 49.2570833,58.3130769 49.6008333,55.7953846 C49.7953817,54.1470312 50.8568928,52.7321444 52.3783343,52.093257 C53.8997758,51.4543695 55.645043,51.6906271 56.9449201,52.7114377 C58.2447972,53.7322484 58.8975629,55.3791976 58.6529167,57.0207692 L58.650625,57.0207692 Z" id="Path" fill="#6C63FF" fill-rule="nonzero"></path>
                    <path d="M1.36583333,26.0561538 C3.17625,27.8238462 11.605,29.6538462 11.605,29.6538462 C11.605,29.6538462 9.5425,21.2238462 7.7275,19.4561538 C5.91189822,17.7248605 3.05132807,17.7855748 1.30978116,19.592367 C-0.431765739,21.3991591 -0.406781602,24.2802632 1.36583333,26.0561538 L1.36583333,26.0561538 Z" id="Path" fill="#000000" fill-rule="nonzero" opacity="0.25"></path>
                    <path d="M6.13479167,41.3076923 C8.6075,41.8015385 16.6764583,38.7253846 16.6764583,38.7253846 C16.6764583,38.7253846 10.3927083,32.7807692 7.91770833,32.2869231 C5.47102981,31.8530816 3.12870074,33.468101 2.64556216,35.9220308 C2.16242358,38.3759607 3.71568613,40.7687227 6.14166667,41.3076923 L6.13479167,41.3076923 Z" id="Path" fill="#000000" fill-rule="nonzero" opacity="0.25"></path>
                    <path d="M23.4941667,57.8123077 C25.8775,56.9815385 31.2858333,50.2269231 31.2858333,50.2269231 C31.2858333,50.2269231 22.88,48.2907692 20.4989583,49.1215385 C18.9082497,49.6191646 17.7127111,50.9493705 17.379168,52.5927471 C17.0456248,54.2361238 17.6269767,55.9320327 18.8962216,57.0182677 C20.1654665,58.1045027 21.9213031,58.4087877 23.478125,57.8123077 L23.4941667,57.8123077 Z" id="Path" fill="#000000" fill-rule="nonzero" opacity="0.25"></path>
                    <path d="M39.4235417,67.3292308 C41.9122917,66.9161538 48.3839583,61.1815385 48.3839583,61.1815385 C48.3839583,61.1815385 40.4341667,57.8330769 37.93625,58.2461538 C35.4454458,58.6597302 33.7591916,61.028316 34.1698958,63.5365385 C34.5806001,66.0447609 36.9327374,67.7428071 39.4235417,67.3292308 L39.4235417,67.3292308 Z" id="Path" fill="#000000" fill-rule="nonzero" opacity="0.25"></path>
                    <path d="M23.705,32.1392308 C23.705,34.6776923 19.1445833,42.0438462 19.1445833,42.0438462 C19.1445833,42.0438462 14.575,34.6823077 14.5727083,32.1438462 C14.5356135,30.4765549 15.3977119,28.9196768 16.8257382,28.0750612 C18.2537645,27.2304456 20.0239438,27.2304456 21.4519702,28.0750612 C22.8799965,28.9196768 23.7420948,30.4765549 23.705,32.1438462 L23.705,32.1392308 Z" id="Path" fill="#000000" fill-rule="nonzero" opacity="0.25"></path>
                    <path d="M42.1872917,43.4976923 C41.4333333,45.9207692 34.890625,51.5746154 34.890625,51.5746154 C34.890625,51.5746154 32.718125,43.1723077 33.4697917,40.7492308 C34.3014584,38.4332739 36.7971618,37.1879948 39.1308506,37.9245369 C41.4645394,38.661079 42.8079441,41.1180297 42.178125,43.4976923 L42.1872917,43.4976923 Z" id="Path" fill="#000000" fill-rule="nonzero" opacity="0.25"></path>
                    <path d="M58.650625,57.0207692 C58.3091667,59.5361538 52.8091667,66.2238462 52.8091667,66.2238462 C52.8091667,66.2238462 49.2570833,58.3130769 49.6008333,55.7953846 C49.7953817,54.1470312 50.8568928,52.7321444 52.3783343,52.093257 C53.8997758,51.4543695 55.645043,51.6906271 56.9449201,52.7114377 C58.2447972,53.7322484 58.8975629,55.3791976 58.6529167,57.0207692 L58.650625,57.0207692 Z" id="Path" fill="#000000" fill-rule="nonzero" opacity="0.25"></path>
                    <path d="M58.4970833,74.5915385 C58.4970833,74.5915385 56.4345833,53.0907692 44.0870833,41.6538462 C38.9102083,36.8538462 35.3122917,30.5653846 34.0266667,23.5984615 C33.4233038,20.2908569 33.1225988,16.9344793 33.1282528,13.5715385" id="Path" stroke="#535461" stroke-width="2"></path>
                    <path d="M25.3939583,6.31846154 C26.338125,8.67230769 33.3070833,13.7907692 33.3070833,13.7907692 C33.3070833,13.7907692 34.808125,5.25230769 33.86625,2.88692308 C32.9233388,0.529092085 30.2608322,-0.612581754 27.919375,0.336923167 C25.5779179,1.28642809 24.4441722,3.96755358 25.3870833,6.32538462 L25.3939583,6.31846154 Z" id="Path" fill="#6C63FF" fill-rule="nonzero"></path>
                    <path d="M23.615625,22.2069231 C25.678125,23.6676923 34.2879167,24.1453846 34.2879167,24.1453846 C34.2879167,24.1453846 30.9329167,16.1469231 28.8704167,14.6838462 C26.8076543,13.2632611 23.9941236,13.7758504 22.5564024,15.8341788 C21.1186812,17.8925072 21.5906718,20.7322081 23.615625,22.2069231 L23.615625,22.2069231 Z" id="Path" fill="#6C63FF" fill-rule="nonzero"></path>
                    <path d="M32.8464583,44.3792308 C35.3672917,44.5915385 43.030625,40.6269231 43.030625,40.6269231 C43.030625,40.6269231 36.1258333,35.4276923 33.611875,35.2153846 C31.9653177,35.038851 30.3528426,35.773567 29.3976176,37.1355893 C28.4423926,38.4976116 28.2940536,40.2735796 29.0099288,41.7771407 C29.7258039,43.2807018 31.1937514,44.2763234 32.8464583,44.3792308 L32.8464583,44.3792308 Z" id="Path" fill="#6C63FF" fill-rule="nonzero"></path>
                    <path d="M43.580625,59.5707692 C46.0235417,60.21 54.2483333,57.6069231 54.2483333,57.6069231 C54.2483333,57.6069231 48.3152083,51.3069231 45.8745833,50.67 C43.4337724,50.0327484 40.9420971,51.5086589 40.3092708,53.9665385 C39.6764446,56.424418 41.1421057,58.9335176 43.5829167,59.5707692 L43.580625,59.5707692 Z" id="Path" fill="#6C63FF" fill-rule="nonzero"></path>
                    <path d="M43.3629167,20.9907692 C42.343125,23.3146154 35.206875,28.1861538 35.206875,28.1861538 C35.206875,28.1861538 33.9922917,19.59 35.0120833,17.2684615 C36.0669471,15.0046339 38.7247317,14.0043371 40.9955028,15.0165126 C43.2662739,16.0286881 44.3178593,18.6824027 43.3629167,20.9907692 L43.3629167,20.9907692 Z" id="Path" fill="#6C63FF" fill-rule="nonzero"></path>
                    <path d="M55.694375,38.9192308 C54.030625,40.8276923 45.77375,43.3269231 45.77375,43.3269231 C45.77375,43.3269231 47.1670833,34.7584615 48.833125,32.85 C49.8985391,31.5746667 51.5657225,30.9795065 53.1909403,31.2943234 C54.816158,31.6091403 56.1450926,32.784671 56.6646141,34.3670183 C57.1841355,35.9493655 56.812948,37.6909201 55.694375,38.9192308 L55.694375,38.9192308 Z" id="Path" fill="#6C63FF" fill-rule="nonzero"></path>
                    <path d="M65.305625,58.0015385 C63.985625,60.1661538 56.2672917,64.0338462 56.2672917,64.0338462 C56.2672917,64.0338462 56.203125,55.3523077 57.523125,53.1876923 C58.8432006,51.0210368 61.6575573,50.3422316 63.8091667,51.6715385 C65.960776,53.0008454 66.6348673,55.8348829 65.3147917,58.0015385 L65.305625,58.0015385 Z" id="Path" fill="#6C63FF" fill-rule="nonzero"></path>
                </g>
                <ellipse id="Oval" fill="#6C63FF" fill-rule="nonzero" opacity="0.1" cx="139" cy="194.5" rx="77" ry="3.5"></ellipse>
                <path d="M51.8349831,188.012668 C51.8349831,188.012668 43.0499724,187.425534 44.0847253,194.245504 C44.0847253,194.245504 43.8769436,195.452008 44.8659845,196 C44.8659845,196 44.8805293,195.493453 45.7656793,195.666139 C46.081455,195.72375 46.4021793,195.740748 46.7214752,195.716794 C47.1520812,195.683804 47.5612726,195.496286 47.8871306,195.182617 L47.8871306,195.182617 C47.8871306,195.182617 50.3576552,194.052095 51.3176067,189.57836 C51.3176067,189.57836 52.0282201,188.604408 51.9991307,188.353437 L50.5176471,189.044183 C50.5176471,189.044183 51.0246344,190.227662 50.6256936,191.213127 C50.6256936,191.213127 50.5779038,189.085628 50.2932428,189.140888 C50.2350639,189.1524 49.5223727,189.55073 49.5223727,189.55073 C49.5223727,189.55073 50.392978,191.62297 49.7301544,193.117285 C49.7301544,193.117285 49.9794924,190.573035 49.2439452,189.700392 L48.2050366,190.375021 C48.2050366,190.375021 49.223167,192.509428 48.5333317,194.247806 C48.5333317,194.247806 48.7099462,191.579223 47.984788,190.5408 L47.0393812,191.358184 C47.0393812,191.358184 47.9972549,193.458053 47.4133883,194.901713 C47.4133883,194.901713 47.3365091,191.795656 46.8336773,191.560803 C46.8336773,191.560803 46.0025505,192.368976 45.8820371,192.712047 C45.8820371,192.712047 46.5365495,194.236294 46.1292973,195.042165 C46.1292973,195.042165 45.8799593,192.969925 45.6763332,192.969925 C45.6763332,192.969925 44.8452064,194.339906 44.7662493,195.272414 C44.7662493,195.272414 44.8015722,193.874803 45.4768628,192.831776 C45.0009631,192.930511 44.5616942,193.181901 44.21355,193.554757 C44.21355,193.554757 44.3423746,192.58541 45.6804888,192.500218 C45.6804888,192.500218 46.3620129,191.461796 46.5427829,191.397326 C46.5427829,191.397326 45.21298,191.272992 44.406787,191.671322 C44.406787,191.671322 45.1174004,190.750327 46.7879654,191.171682 L47.7209052,190.326669 C47.7209052,190.326669 45.9693054,190.061883 45.2275247,190.354299 C45.2275247,190.354299 46.0815075,189.546125 47.9723211,190.135562 L48.9821402,189.458631 C48.9821402,189.458631 47.4902675,189.104048 46.6009618,189.228382 C46.6009618,189.228382 47.5380573,188.668877 49.2813459,189.276734 L50.0065041,188.915244 C50.0065041,188.915244 48.9135723,188.684995 48.5935884,188.638945 C48.2736046,188.592895 48.2549042,188.503098 48.2549042,188.503098 C48.9478416,188.375079 49.6592474,188.46276 50.3098654,188.756372 C50.3098654,188.756372 51.8599169,188.118583 51.8349831,188.012668 Z" id="Path" fill="#6C63FF" fill-rule="nonzero"></path>
                <ellipse id="Oval" fill="#6C63FF" fill-rule="nonzero" opacity="0.1" cx="47" cy="196" rx="7" ry="1"></ellipse>
                <path d="M36.8694125,189.007955 C36.8694125,189.007955 30.2822664,188.640255 31.0645418,192.904559 C30.9823354,193.348424 31.218933,193.790697 31.6505573,194 C31.6505573,194 31.6505573,193.685923 32.325028,193.793168 C32.5615655,193.829113 32.8018401,193.839396 33.0409621,193.82381 C33.3649216,193.804355 33.6729025,193.686786 33.9172211,193.489305 L33.9172211,193.489305 C33.9172211,193.489305 35.7692513,192.784546 36.4879496,189.985936 C36.4879496,189.985936 37.0214448,189.378209 36.999331,189.219894 L35.8936414,189.659092 C35.8936414,189.659092 36.2723401,190.399599 35.9738039,191.014987 C35.9738039,191.014987 35.937869,189.68718 35.7250237,189.717821 C35.6807961,189.717821 35.1473009,189.973169 35.1473009,189.973169 C35.1473009,189.973169 35.802422,191.265228 35.3076259,192.202353 C35.3076259,192.202353 35.4955931,190.611538 34.9427483,190.067648 L34.1494159,190.488971 C34.1494159,190.488971 34.9123418,191.821885 34.3954319,192.909666 C34.3954319,192.909666 34.5281147,191.242246 33.9863267,190.593664 L33.2759211,191.104359 C33.2759211,191.104359 33.9946194,192.416845 33.5523435,193.318222 C33.5523435,193.318222 33.497059,191.377581 33.1183603,191.229479 C32.8496354,191.43973 32.6100936,191.679877 32.4051905,191.944452 C32.4051905,191.944452 32.8944582,192.896899 32.5903935,193.399933 C32.5903935,193.399933 32.4051905,192.107875 32.250394,192.100214 C32.250394,192.100214 31.6312078,192.958182 31.5676306,193.545481 C31.5976341,193.000522 31.7815639,192.472315 32.1011259,192.013396 C31.7443026,192.075873 31.4148687,192.232911 31.152997,192.465361 C31.152997,192.465361 31.2497448,191.860187 32.2586866,191.806564 C32.2586866,191.806564 32.7700681,191.157982 32.9055151,191.117126 C32.9055151,191.117126 31.9076302,191.040522 31.3050293,191.288209 C31.3050293,191.288209 31.8357603,190.71623 33.0879539,190.976685 L33.7900668,190.448115 C33.7900668,190.448115 32.4770603,190.28214 31.9186871,190.46599 C31.9186871,190.46599 32.5599871,189.955295 33.9780341,190.328102 L34.7409599,189.906779 C34.1539713,189.788114 33.5528378,189.74005 32.9525069,189.763784 C32.9525069,189.763784 33.6573841,189.413958 34.9648621,189.794426 L35.5177069,189.567166 C35.5177069,189.567166 34.6884397,189.419065 34.4562448,189.396084 C34.22405,189.373102 34.2047004,189.311819 34.2047004,189.311819 C34.7238467,189.230341 35.2573296,189.285196 35.7443733,189.470134 C35.7443733,189.470134 36.8915263,189.074346 36.8694125,189.007955 Z" id="Path" fill="#6C63FF" fill-rule="nonzero"></path>
                <ellipse id="Oval" fill="#6C63FF" fill-rule="nonzero" opacity="0.1" cx="32.5" cy="193.5" rx="3.5" ry="1"></ellipse>
                <path d="M46.8690817,180.009407 C46.8690817,180.009407 40.2883224,179.570638 41.0634709,184.686229 C40.9817915,185.218503 41.2180103,185.748665 41.6488338,186 C41.6488338,186 41.6602667,185.619564 42.3348059,185.746376 C42.5711496,185.790677 42.8114236,185.803449 43.0505035,185.78442 C43.3709607,185.761622 43.6759922,185.623617 43.9194015,185.391303 L43.9194015,185.391303 C43.9194015,185.391303 45.7692397,184.5442 46.4895104,181.191294 C46.4895104,181.191294 47.0199955,180.460857 46.9994164,180.27064 L45.8904281,180.798177 C45.8904281,180.798177 46.2677128,181.68586 45.9704582,182.423905 C45.9704582,182.423905 45.933873,180.831148 45.7212216,180.866655 C45.6777767,180.866655 45.1450051,181.176076 45.1450051,181.176076 C45.1450051,181.176076 45.7966786,182.723181 45.3050652,183.849271 C45.3050652,183.849271 45.4902777,181.94202 44.9392134,181.287671 L44.1594918,181.794918 C44.1594918,181.794918 44.9209208,183.395284 44.4041552,184.69891 C44.4041552,184.69891 44.5367764,182.697819 43.9948585,181.909049 L43.2860206,182.522818 C43.2860206,182.522818 44.0017182,184.097822 43.5649826,185.178259 C43.5649826,185.178259 43.5078183,182.849993 43.1328202,182.674993 C43.1328202,182.674993 42.5131587,183.281153 42.4171226,183.529705 C42.4171226,183.529705 42.9087359,184.673548 42.6046216,185.277172 C42.6046216,185.277172 42.4171226,183.724995 42.2639221,183.717386 C42.2639221,183.717386 41.6465472,184.747099 41.57795,185.449636 C41.6087685,184.798207 41.7924175,184.166996 42.1107217,183.618473 C41.754014,183.694046 41.4249859,183.883575 41.1640802,184.163764 C41.1640802,184.163764 41.2601163,183.435864 42.2639221,183.372458 C42.2639221,183.372458 42.7738281,182.591297 42.9087359,182.545645 C42.9087359,182.545645 41.9140764,182.451804 41.3081343,182.748544 C41.3081343,182.748544 41.840906,182.06376 43.0916618,182.375717 L43.7913534,181.741657 C43.7913534,181.741657 42.4788601,181.543831 41.9232227,181.761947 C41.9232227,181.761947 42.5634633,181.155787 43.981139,181.599628 L44.7425681,181.092381 C44.7425681,181.092381 43.6244335,180.838757 42.9590406,180.922453 C42.9590406,180.922453 43.6610187,180.501437 44.9666523,180.95796 L45.5108569,180.686583 C45.5108569,180.686583 44.6922635,180.509046 44.4521732,180.481147 C44.212083,180.453249 44.1983635,180.377162 44.1983635,180.377162 C44.7173042,180.281378 45.2500294,180.347228 45.7372277,180.567379 C45.7372277,180.567379 46.8965206,180.090567 46.8690817,180.009407 Z" id="Path" fill="#6C63FF" fill-rule="nonzero"></path>
                <ellipse id="Oval" fill="#6C63FF" fill-rule="nonzero" opacity="0.1" cx="42.5" cy="186.5" rx="4.5" ry="1"></ellipse>
                <path d="M146,189.187841 L146,191 L93,191 L93,189.52849 C99.6098308,187.052331 104.092021,180.791951 104.354471,173.669435 C104.616921,166.546918 100.607883,159.96664 94.1986076,157 L145.647064,157 C140.858762,159.222226 137.320767,163.514294 136.021534,168.677072 C134.257611,175.700013 136.927621,183.098642 142.750238,187.322383 C143.764264,188.060138 144.853775,188.685549 146,189.187841 L146,189.187841 Z" id="Path" fill="#C8CAD7" fill-rule="nonzero"></path>
                <path d="M148,157 C143.253013,159.283682 139.745544,163.694446 138.457522,169 L106.542478,169 C105.254456,163.694446 101.746987,159.283682 97,157 L148,157 Z" id="Path" fill="#000000" fill-rule="nonzero" opacity="0.1"></path>
                <path d="M35,149 L35,159.001139 C35,164.523408 39.0400979,169 44.0253146,169 L198.974685,169 C203.959902,169 208,164.523408 208,159.001139 L208,149 L35,149 Z" id="Path" fill="#C8CAD7" fill-rule="nonzero"></path>
                <path d="M146,189.533123 L146,192 L93,192 L93,189.996845 C94.4535838,189.252531 95.8285576,188.244699 97.0885583,187 L142.750238,187 C143.764472,188.002108 144.853976,188.851354 146,189.533123 L146,189.533123 Z" id="Path" fill="#000000" fill-rule="nonzero" opacity="0.1"></path>
                <rect id="Rectangle" fill="#C8CAD7" fill-rule="nonzero" x="77" y="189" width="87" height="6" rx="3"></rect>
                <path d="M208,38.0612812 C208,33.0568738 203.959229,29 198.974685,29 L44.0253146,29 C39.040771,29 35,33.0568738 35,38.0612812 L35,150 L208,150 L208,38.0612812 Z" id="Path" fill="#474157" fill-rule="nonzero"></path>
                <path d="M204,41.4992059 C204,61.5561365 204,76.5988344 204,86.6272996 C204,98.1547427 204,115.445907 204,138.500794 C204,139.694245 203.528563,140.838991 202.687835,141.682889 C201.847106,142.526786 200.706659,143 199.51769,143 L43.4823103,143 C42.293341,143 41.1528936,142.526786 40.3121652,141.682889 C39.4714368,140.838991 39,139.694245 39,138.500794 L39,41.4992059 C39,39.0143631 41.006799,37 43.4823103,37 L199.51769,37 C201.993201,37 204,39.0143631 204,41.4992059 Z" id="Path" fill="#F4F4F7" fill-rule="nonzero"></path>
                <circle id="Oval" fill="#FFFFFF" fill-rule="nonzero" cx="121.5" cy="33.5" r="2.5"></circle>
                <circle id="Oval" fill="#FFFFFF" fill-rule="nonzero" cx="121.5" cy="159.5" r="4.5"></circle>
                <path d="M204,42 L39,42 C39,40.6741534 39.4711285,39.4023774 40.3113715,38.4646219 C41.1516145,37.5268664 42.2914874,37 43.4800752,37 L199.517627,37 C200.706613,36.9993203 201.847076,37.525886 202.687817,38.4637153 C203.528557,39.4015446 204,40.6737093 204,42 L204,42 Z" id="Path" fill="#FFFFFF" fill-rule="nonzero"></path>
                <circle id="Oval" fill="#EDEDF4" fill-rule="nonzero" cx="43" cy="41" r="1"></circle>
                <circle id="Oval" fill="#EDEDF4" fill-rule="nonzero" cx="45" cy="41" r="1"></circle>
                <circle id="Oval" fill="#EDEDF4" fill-rule="nonzero" cx="50" cy="41" r="1"></circle>
                <rect id="Rectangle" fill="#FFFFFF" fill-rule="nonzero" x="53" y="55" width="133" height="78"></rect>
                <path d="M77,121 L82,121 L82,122 L77,122 L77,121 Z M79.5011699,118.327505 C79.7444418,118.325913 79.9647248,118.173571 80.0657049,117.937081 C80.166685,117.700591 80.1299929,117.422974 79.9716715,117.225611 C79.8133501,117.028249 79.5621994,116.947043 79.3280299,117.0175 L78.0248011,116 L77.9475901,116.075 L78.9021993,117.465 C78.8851546,117.5284 78.8764917,117.594036 78.8764623,117.66 C78.8758376,117.837236 78.9414541,118.007405 79.0587452,118.132731 C79.1760363,118.258056 79.3352964,118.328168 79.5011699,118.327505 Z" id="Shape" fill="#65617D" fill-rule="nonzero"></path>
                <path d="M80.0046108,114 C78.4737225,114.000086 77.076818,114.94448 76.4055535,116.433185 C75.7342889,117.92189 75.9061231,119.694411 76.848276,121 L77.9803143,121 L78.0587039,120.915182 L78.4829301,120.456165 L78.0356481,119.979686 L77.611422,120.436208 C77.2292677,119.931833 76.9934398,119.31648 76.9335824,118.667498 L77.5330324,118.667498 L77.5330324,117.998931 L76.9335824,117.998931 C76.9934398,117.34995 77.2292677,116.734596 77.611422,116.230221 L78.0356481,116.686743 L78.4760133,116.210264 L78.0540928,115.751247 C78.5203108,115.337882 79.0889876,115.082731 79.6887468,115.017819 L79.6887468,115.666429 L80.3043358,115.666429 L80.3043358,115.017819 C80.9046649,115.083268 81.4739427,115.338329 81.9412954,115.751247 L81.5170693,116.210264 L81.9597401,116.686743 L82.3839662,116.230221 C82.765173,116.735209 83.0008775,117.350241 83.0618058,117.998931 L82.4600502,117.998931 L82.4600502,118.667498 L83.0618058,118.667498 C83.0008775,119.316188 82.765173,119.93122 82.3839662,120.436208 L81.9597401,119.979686 L81.5170693,120.456165 L81.943601,120.915182 L82.0196851,121 L83.1517233,121 C84.0936208,119.694766 84.2656382,117.922815 83.5949519,116.434305 C82.9242656,114.945795 81.5281665,114.001039 79.9976941,114 L80.0046108,114 Z" id="Path" fill="#65617D" fill-rule="nonzero"></path>
                <path d="M78.4995045,97.1352253 C78.3612388,97.1279048 78.2256876,97.0847386 78.1014146,97.0084538 C78.0784613,96.9949519 78.0515074,96.9977707 78.0306586,97.0158533 C78.0098099,97.033936 77.9982161,97.0645505 78.0002241,97.0962187 L78.0324716,97.6896765 C78.0337406,97.7063381 78.0421373,97.7208192 78.054393,97.7274822 C78.0666486,97.7341452 78.0808263,97.7319371 78.0914067,97.7217176 L78.2259567,97.593553 C78.2341328,97.5862106 78.2443565,97.5833953 78.2542368,97.5857656 C78.264117,97.5881358 78.2727873,97.5954838 78.2782199,97.6060909 L78.4683689,97.9794399 C78.4751677,97.9922805 78.4866491,98 78.4989485,98 C78.5112478,98 78.5227293,97.9922805 78.529528,97.9794399 L78.7207891,97.6060909 C78.7270878,97.5961232 78.7364,97.5898682 78.7465127,97.5888125 C78.7566254,97.5877567 78.7666355,97.5919944 78.7741643,97.6005185 L78.9087142,97.7286831 C78.9192946,97.7389026 78.9334723,97.7411106 78.945728,97.7344476 C78.9579836,97.7277846 78.9663803,97.7133036 78.9676493,97.696642 L78.9998968,97.1031841 C79.0012349,97.071801 78.9894883,97.041793 78.9688627,97.0239039 C78.9482371,97.0060148 78.9216825,97.0028033 78.8987064,97.0154192 C78.7743558,97.0914394 78.6388494,97.1345913 78.5006165,97.1421907 L78.4995045,97.1352253 Z" id="Path" fill="#65617D" fill-rule="nonzero"></path>
                <path d="M82.9375801,94.8134678 L81.9412402,93.9591293 C81.9412402,91.2106601 80.003359,90 80.003359,90 C80.003359,90 78.045551,91.2189951 78.045551,93.9591293 L77.0492111,94.8134678 C77.011425,94.8460539 76.9939304,94.8915005 77.0018849,94.9364092 L77.3854758,96.88055 C77.3913451,96.9273651 77.4262813,96.9681242 77.4774004,96.9877957 C77.5285195,97.0074673 77.5882488,97.0031373 77.6345608,96.9764027 L79.0319276,96.1845768 C79.3003139,96.3917739 79.6462476,96.5147484 80.0108315,96.5325634 C80.3701408,96.5169177 80.7106426,96.3933589 80.9698087,96.1845768 L82.3646847,96.9764027 C82.4109967,97.0031373 82.470726,97.0074673 82.5218451,96.9877957 C82.5729641,96.9681242 82.6079004,96.9273651 82.6137697,96.88055 L82.9998514,94.9343254 C83.0020787,94.8882239 82.9791732,94.8437682 82.9375801,94.8134678 L82.9375801,94.8134678 Z M80.0008681,93.0547809 C79.7282548,93.0650018 79.4756539,92.9353841 79.3629859,92.727463 C79.2503179,92.5195418 79.3002715,92.2751874 79.4891315,92.1104054 C79.6779916,91.9456233 79.9677262,91.8935967 80.2207859,91.9790249 C80.4738456,92.064453 80.6392703,92.2701328 80.6385257,92.498419 C80.6454804,92.79916 80.3603387,93.0479486 80.0008681,93.0547809 L80.0008681,93.0547809 Z" id="Shape" fill="#65617D" fill-rule="nonzero"></path>
                <path d="M82.7081938,73.4554946 L82.6070345,73.4554946 C82.474564,73.4554946 82.3661791,73.4392061 82.3517278,73.3112248 L82.3517278,73.3112248 C82.0578842,70.6724831 80.3357682,70.6212906 80.3357682,70.0000011 C80.3357682,69.3787085 82.0602928,69.327516 82.3517278,66.6887743 L82.3517278,66.6887743 C82.3661791,66.560793 82.474564,66.5445045 82.6070345,66.5445045 L82.7081938,66.5445045 C82.8606476,66.5461461 82.9882035,66.4330975 82.9996288,66.286215 C83.0028977,66.2118005 82.9747355,66.1392956 82.9216012,66.0853295 C82.8684669,66.0313633 82.7949198,66.0005665 82.717828,66.0000011 L76.2893977,66.0000011 C76.1378687,65.99959 76.0117353,66.1123095 76.0003712,66.2582918 C75.9964065,66.3328844 76.0243365,66.4057749 76.0776202,66.4598928 C76.1309039,66.5140108 76.2048612,66.5446028 76.282172,66.5445045 L76.3929655,66.5445045 C76.5230274,66.5445045 76.6338209,66.560793 76.6482722,66.6887743 L76.6482722,66.6887743 C76.9421158,69.327516 78.6642318,69.3787085 78.6642318,70.0000011 C78.6642318,70.6212906 76.9397072,70.6724831 76.6482722,73.3112248 L76.6482722,73.3112248 C76.6338209,73.4392061 76.5230274,73.4554946 76.3929655,73.4554946 L76.2893977,73.4554946 C76.1378687,73.4550823 76.0117353,73.5678019 76.0003712,73.7137841 C75.9964065,73.7883768 76.0243365,73.8612672 76.0776202,73.9153852 C76.1309039,73.9695031 76.2048612,74.0000951 76.282172,74.0000011 L82.717828,74.0000011 C82.7951388,74.0000951 82.8690961,73.9695031 82.9223798,73.9153852 C82.9756635,73.8612672 83.0035935,73.7883768 82.9996288,73.7137841 C82.9870676,73.5674367 82.8601936,73.4549923 82.7081938,73.4554946 L82.7081938,73.4554946 Z M77.6357793,72.7923188 C78.2138322,71.2402547 79.2350591,71.4287362 79.2350591,70.8167529 L79.2350591,69.7370561 C79.2350591,69.3600931 78.495633,69.0971497 78.0307821,68.4851664 C78.0001595,68.4388768 77.9979241,68.3801852 78.0249426,68.3318466 C78.0519611,68.2835079 78.1039848,68.2531233 78.160844,68.2524457 L80.8343388,68.2524457 C80.8920607,68.2514131 80.9457019,68.2811301 80.9739101,68.3297948 C81.0021182,68.3784596 81.0003149,68.4381733 80.9692179,68.4851664 C80.5140012,69.0994766 79.7649409,69.36242 79.7649409,69.7393831 L79.7649409,70.8190798 C79.7649409,71.4264093 80.7476309,71.2611971 81.3690378,72.7946457 C81.4268431,72.9319347 81.3834891,73.1041278 81.2317502,73.1041278 L77.7754754,73.1041278 C77.6189194,73.0994739 77.5827911,72.9319347 77.6357793,72.7923188 L77.6357793,72.7923188 Z" id="Shape" fill="#65617D" fill-rule="nonzero"></path>
                <path d="M165,69.9986547 C165.002543,71.6514868 163.858554,72.9941968 162.444,72.9986492 L96.644391,72.9986492 C95.709189,73.031385 94.8327834,72.4671133 94.3569072,71.5258584 C93.8810309,70.5846034 93.8810309,69.4153966 94.3569072,68.4741416 C94.8327834,67.5328867 95.709189,66.968615 96.644391,67.0013508 L162.444,67.0013508 C163.857126,67.0072796 165,68.3474833 165,69.9986547 Z" id="Path" fill="#5A5773" fill-rule="nonzero" opacity="0.2"></path>
                <path d="M165,93.9959623 C165.001829,94.7905418 164.732986,95.553429 164.252603,96.116796 C163.77222,96.680163 163.119648,96.9978612 162.438448,97 L96.4960321,97 C95.105584,96.9514123 94,95.6226026 94,94 C94,92.3773974 95.105584,91.0485877 96.4960321,91 L162.438448,91 C163.853215,91.0073976 164.997467,92.3457075 165,93.9959623 Z" id="Path" fill="#5A5773" fill-rule="nonzero" opacity="0.2"></path>
                <path d="M165,118.004036 C165,119.654768 163.856754,120.9942 162.444,120.998649 L96.644391,120.998649 C95.709189,121.031385 94.8327834,120.467113 94.3569072,119.525858 C93.8810309,118.584603 93.8810309,117.415397 94.3569072,116.474142 C94.8327834,115.532887 95.709189,114.968615 96.644391,115.001351 L162.444,115.001351 C163.858925,115.007284 165.002545,116.350765 165,118.004036 L165,118.004036 Z" id="Path" fill="#5A5773" fill-rule="nonzero" opacity="0.2"></path>
                <path d="M154,67.0013508 L154,72.9986492 L98.6538157,72.9986492 C97.7152807,73.031385 96.8357514,72.4671133 96.3581792,71.5258584 C95.8806069,70.5846034 95.8806069,69.4153966 96.3581792,68.4741416 C96.8357514,67.5328867 97.7152807,66.968615 98.6538157,67.0013508 L154,67.0013508 Z" id="Path" fill="#6C63FF" fill-rule="nonzero"></path>
                <path d="M163,91 L163,97 L98.4748642,97 C97.0962079,96.9514559 96,95.6238373 96,94.0026894 C96,92.3815414 97.0962079,91.0539229 98.4748642,91.0053788 L163,91 Z" id="Path" fill="#6C63FF" fill-rule="nonzero"></path>
                <path d="M138,115.006732 L138,120.998649 L96.6737236,120.998649 C95.728148,121.031385 94.8420209,120.467113 94.3608661,119.525858 C93.8797113,118.584603 93.8797113,117.415397 94.3608661,116.474142 C94.8420209,115.532887 95.728148,114.968615 96.6737236,115.001351 L138,115.006732 Z" id="Path" fill="#6C63FF" fill-rule="nonzero"></path>
                <path d="M171,110.226847 C171,110.226847 172.069355,104.030779 175.491292,104 L178,109.71544 L176.327528,110.993956 C176.327528,110.993956 172.702414,111.11944 171,110.226847 Z" id="Path" fill="#65617D" fill-rule="nonzero"></path>
                <path d="M178,109.714354 L176.327944,110.993687 C176.327944,110.993687 173.765406,111.083714 171.950275,110.583827 C171.623411,110.500601 171.305017,110.380739 171,110.226087 C171,110.226087 171,110.19055 171.019219,110.126584 C171.018559,110.118703 171.018559,110.110772 171.019219,110.102892 C171.174097,109.325172 171.388417,108.563505 171.659854,107.826153 C171.764491,107.546595 171.873398,107.25993 172.014338,106.973265 C172.516168,105.902416 173.220866,104.841043 174.186089,104.331679 C174.543002,104.13722 174.931534,104.024422 175.328554,104 L175.431056,104 L175.482306,104 L175.535692,104.125564 L176.389872,106.058778 L178,109.714354 Z" id="Path" fill="#000000" fill-rule="nonzero" opacity="0.1"></path>
                <path d="M176,103.705852 C176,103.705852 175.65267,107.930698 172.993261,108 C172.993261,108 172.241576,107.550821 171.228097,106.801335 L171,106.511294 C171.450694,106.745464 171.948191,106.87783 172.456713,106.898871 C173.278441,106.937066 174.03699,106.463626 174.356661,105.713039 C174.637623,105.17087 174.884339,104.611959 175.095386,104.039528 C175.220056,103.70349 175.30698,103.35488 175.354588,103 L176,103.705852 Z" id="Path" fill="#000000" fill-rule="nonzero" opacity="0.1"></path>
                <path d="M191.78535,186.134754 C191.78535,186.134754 191.905554,186.431461 192,186.73435 C191.227261,186.81718 187.848672,187.153448 187.005098,186.917319 C186.049906,186.650283 184,186.500693 184,186.500693 L184.034344,186.433934 C184.345586,186.221294 184.63751,186 184.63751,186 L191.78535,186.134754 Z" id="Path" fill="#000000" fill-rule="nonzero" opacity="0.1"></path>
                <path d="M207,86.5751636 L203.056955,91 C203.056955,91 198.005915,88.8705994 198.536254,88.1441957 C198.733406,87.8619359 198.709748,86.9736479 198.591457,85.9919652 C198.394304,84.4416121 198,82.6567344 198,82.6567344 C198,82.6567344 206.828478,81.1437392 206.083242,82.7106958 C205.811172,83.283517 205.858488,83.9559593 206.028039,84.5785911 C206.247606,85.294948 206.575834,85.9691853 207,86.5751636 L207,86.5751636 Z" id="Path" fill="#FBBEBE" fill-rule="nonzero"></path>
                <path d="M211,127.861173 C210.011589,127.861173 206.718437,127.902207 203.039222,127.970597 L202.992709,127.970597 L201.778708,127.995218 L201.739171,127.995218 C197.373884,128.077286 193.073715,127.073318 191.348066,127.264811 C187.678154,127.669681 192.664396,123.279032 192.664396,123.279032 C195.403137,124.061103 198.220474,124.395258 201.036818,124.272057 L202.092673,124.209138 C205.427688,123.987554 208.778983,123.618247 210.530214,123 C210.646498,124.140748 210.811621,125.798526 211,127.861173 Z" id="Path" fill="#000000" fill-rule="nonzero" opacity="0.1"></path>
                <path d="M199.27381,87 C199.27381,87 199.016667,87.2047178 198.952381,88.5695029 C198.888095,89.9342881 198,93 198,93 C198,93 201.333333,90.5459141 203,90.8188711 L199.27381,87 Z" id="Path" fill="#000000" fill-rule="nonzero" opacity="0.1"></path>
                <path d="M199.27381,85 C199.27381,85 199.016667,85.2046316 198.952381,86.5688421 C198.888095,87.9330526 198,91 198,91 C198,91 201.333333,88.5444211 203,88.8172632 L199.27381,85 Z" id="Path" fill="#E7EFFD" fill-rule="nonzero"></path>
                <path d="M207.132251,86 L202,90.0753463 C202,90.0753463 206.320186,92.3963211 206.87239,92.9629243 C207.424594,93.5295276 208,87.4144096 208,87.4144096 L207.132251,86 Z" id="Path" fill="#000000" fill-rule="nonzero" opacity="0.1"></path>
                <path d="M209.132251,86 L204,90.0753463 C204,90.0753463 208.317865,92.3963211 208.87239,92.9629243 C209.426914,93.5295276 210,87.4144096 210,87.4144096 L209.132251,86 Z" id="Path" fill="#E7EFFD" fill-rule="nonzero"></path>
                <path d="M178,109.747834 L176.366806,110.993851 C176.366806,110.993851 173.863826,111.081534 172.090882,110.594664 L171.181466,110.149328 L171,110.061646 L171.187723,110.126254 C172.126341,110.435451 172.856377,110.428529 173.438319,110.213937 C175.747318,109.355569 175.492849,105.137568 175.403159,104.182288 C175.403159,104.087683 175.388558,104.025382 175.384386,104 L175.384386,104 C175.387778,104.008177 175.391975,104.015916 175.396901,104.023074 C175.428571,104.080576 175.464131,104.135342 175.503278,104.186903 C175.534565,104.228437 175.570024,104.269971 175.605483,104.309197 L175.605483,104.309197 L176.421037,106.111308 C176.421037,106.111308 176.421037,106.13669 176.421037,106.187453 L178,109.747834 Z" id="Path" fill="#000000" fill-rule="nonzero" opacity="0.1"></path>
                <path d="M184,181 C184.164749,181 191.130908,181.157916 190.998126,181.827597 C190.865343,182.497277 184,181 184,181 Z" id="Path" fill="#000000" fill-rule="nonzero" opacity="0.1"></path>
                <path d="M188,183 C188,183 190.560942,183.477439 189.88701,183.913295 C189.213078,184.349151 188,183 188,183 Z" id="Path" fill="#000000" fill-rule="nonzero" opacity="0.1"></path>
                <path d="M202,181 C202,181 208.930584,181.519661 207.894399,182.193296 C206.858214,182.866931 204.39947,182.972788 204.280924,182.999734 C204.162377,183.026679 202,181 202,181 Z" id="Path" fill="#000000" fill-rule="nonzero" opacity="0.1"></path>
                <path d="M200,183 C200,183 204.847574,183.426076 204.996816,183.90044 C205.146057,184.374805 200,183 200,183 Z" id="Path" fill="#000000" fill-rule="nonzero" opacity="0.1"></path>
                <path d="M203,164 C203,164 207.705882,164.596215 208,165 L203,164 Z" id="Path" fill="#000000" fill-rule="nonzero" opacity="0.1"></path>
                <path d="M189.527798,168 C189.527798,168 188.365684,168.288435 189.490266,168.864119 C190.614848,169.439802 189.527798,168 189.527798,168 Z" id="Path" fill="#000000" fill-rule="nonzero" opacity="0.1"></path>
                <path d="M198,137 C198.204094,137 201.395782,135.506173 202.509615,136.170096 C203.306797,136.591487 204.149153,136.816054 205,136.834019 L198,137 Z" id="Path" fill="#000000" fill-rule="nonzero" opacity="0.1"></path>
                <path d="M198,141.602174 L197.960733,141.893478 L194.67801,149.052174 C194.67801,149.052174 194.15445,151.226087 193.691099,152.452174 C193.401057,153.289522 193.170296,154.140252 193,155 L195.913613,140 L198,141.602174 Z" id="Path" fill="#000000" fill-rule="nonzero" opacity="0.1"></path>
                <path d="M189,94 C189,94 189.799118,94.3696812 189.980736,94.8858657 C190.162354,95.4020503 189,94 189,94 Z" id="Path" fill="#000000" fill-rule="nonzero" opacity="0.1"></path>
                <path d="M184,103 C184,103 182.55249,104.390222 183.140541,104.92411 C183.728592,105.457997 184,103 184,103 Z" id="Path" fill="#000000" fill-rule="nonzero" opacity="0.1"></path>
                <path d="M219,96 C219,96 218.032297,96.1034483 218,97 L219,96 Z" id="Path" fill="#000000" fill-rule="nonzero" opacity="0.1"></path>
                <path d="M202,120 C202.204718,119.813449 206.910699,113.475329 208,114.034981 L202,120 Z" id="Path" fill="#000000" fill-rule="nonzero" opacity="0.1"></path>
                <path d="M210,78.8502373 C210.001263,80.1576323 209.716596,81.4449927 209.171465,82.5971344 L209.119136,82.5971344 C208.683067,82.490857 208.44541,81.9050954 208.105276,81.5368317 C207.677137,81.0784053 207.039311,80.9790895 206.517985,81.2896749 C205.992666,81.6457949 205.690352,82.3082087 205.737421,83 C205.519387,81.9322826 205.584797,80.7978329 205.364582,79.727644 C205.144367,78.657455 204.492444,77.5749082 203.587601,77.5576072 C203.199499,77.5576072 202.745988,77.7207307 202.464723,77.3895406 C202.294656,77.1918152 202.259771,76.877926 202.133311,76.6357124 C201.479207,75.4543029 199.527798,76.0524223 198.727612,76.6579565 C197.927425,77.2634907 196.996418,78.2323453 196,78.7513746 C196.089028,74.419408 199.22687,70.969166 203.049343,71.0002078 C206.871817,71.0312496 209.965729,74.5320989 210,78.8650667 L210,78.8502373 Z" id="Path" fill="#000000" fill-rule="nonzero" opacity="0.1"></path>
                <path d="M218,125.118957 L217.093124,126 C216.280996,124.431934 213,121.298982 213,121.298982 L213.140769,121.136768 L213.619924,121 L218,125.118957 Z" id="Path" fill="#000000" fill-rule="nonzero" opacity="0.1"></path>
                <path d="M218,123.411311 C218,123.411311 217.712919,124.242662 217.413876,124.963166 C217.114833,125.68367 216.789474,126.348751 216.77512,125.794517 C216.741627,124.747015 213,121.233171 213,121.233171 L213.507177,120.66231 L214.095694,120 L218,123.411311 Z" id="Path" fill="#E7EFFD" fill-rule="nonzero"></path>
                <path d="M219.537462,118.104461 L220,124 C218.908618,122.724918 215.920312,119.452013 214,119.55778 L218.661758,115.515125 C218.855052,115.352995 219.033053,115.180866 219.194456,115 C219.371156,116.68444 219.537462,118.104461 219.537462,118.104461 Z" id="Path" fill="#000000" fill-rule="nonzero" opacity="0.1"></path>
                <path d="M218,122.434004 C218,122.434004 217.680511,123.272931 217.34771,124 C216.096379,122.196309 214.373802,120.065436 213,119.668345 L213.654952,119 L218,122.434004 Z" id="Path" fill="#000000" fill-rule="nonzero" opacity="0.1"></path>
                <path d="M223,101 C223,101 220.548051,102.467282 221.073932,102.938846 C221.599814,103.41041 223,101 223,101 Z" id="Path" fill="#000000" fill-rule="nonzero" opacity="0.1"></path>
                <path d="M223,108 C223,108 228.431034,105.75 229,108 L223,108 Z" id="Path" fill="#000000" fill-rule="nonzero" opacity="0.1"></path>
                <path d="M193,191.429035 C193,191.429035 190.432605,193.17818 189.151172,192.92123 C187.869738,192.66428 186.554344,193.369124 186.554344,193.369124 C185.67091,194.37415 184.556956,195.129283 183.3168,195.563806 C181.240697,196.294581 178.335964,196.006985 176.690023,195.434152 C175.908938,195.163058 175.847809,194.814172 176.223636,194.38278 C178.014473,194.755239 182.021783,195.495443 183.103983,194.95797 C184.507673,194.250769 186.522648,192.732643 186.522648,192.732643 C186.522648,192.732643 189.151172,192.371971 189.517942,192.371971 C189.778304,192.371971 191.806863,191.499756 192.950192,191 L193,191.429035 Z" id="Path" fill="#000000" fill-rule="nonzero" opacity="0.1"></path>
                <path d="M217,103 L217.950578,105 C217.950578,105 218.327406,103.036364 217,103 Z" id="Path" fill="#000000" fill-rule="nonzero" opacity="0.1"></path>
            </g>
        </g>
    </g>
</svg>